<svg width="64" height="28" viewBox="0 0 64 28" fill="none" xmlns="http://www.w3.org/2000/svg">
<rect x="27.5" y="27.5" width="27" height="27" rx="13.5" transform="rotate(-180 27.5 27.5)" fill="white"/>
<path fill-rule="evenodd" clip-rule="evenodd" d="M13.7661 19.3658C13.4537 19.6782 12.9471 19.6782 12.6347 19.3658L7.8347 14.5658C7.52228 14.2534 7.52228 13.7468 7.8347 13.4344L12.6347 8.63441C12.9471 8.32199 13.4537 8.32199 13.7661 8.63441C14.0785 8.94683 14.0785 9.45336 13.7661 9.76578L10.3318 13.2001L19.6004 13.2001C20.0422 13.2001 20.4004 13.5583 20.4004 14.0001C20.4004 14.4419 20.0422 14.8001 19.6004 14.8001L10.3318 14.8001L13.7661 18.2344C14.0785 18.5468 14.0785 19.0534 13.7661 19.3658Z" fill="#CED1D8"/>
<rect x="27.5" y="27.5" width="27" height="27" rx="13.5" transform="rotate(-180 27.5 27.5)" stroke="#CED1D8"/>
<rect x="36" width="28" height="28" rx="14" fill="#1D1E25"/>
<path fill-rule="evenodd" clip-rule="evenodd" d="M50.2339 8.63422C50.5463 8.3218 51.0529 8.3218 51.3653 8.63422L56.1653 13.4342C56.4777 13.7466 56.4777 14.2532 56.1653 14.5656L51.3653 19.3656C51.0529 19.678 50.5463 19.678 50.2339 19.3656C49.9215 19.0532 49.9215 18.5466 50.2339 18.2342L53.6682 14.7999L44.3996 14.7999C43.9578 14.7999 43.5996 14.4417 43.5996 13.9999C43.5996 13.5581 43.9578 13.1999 44.3996 13.1999H53.6682L50.2339 9.76559C49.9215 9.45317 49.9215 8.94664 50.2339 8.63422Z" fill="white"/>
</svg>
