<svg width="141" height="20" viewBox="0 0 141 20" fill="none" xmlns="http://www.w3.org/2000/svg">
<path fill-rule="evenodd" clip-rule="evenodd" d="M8.98156 2.63718L10.6059 6.07318C10.7651 6.4105 11.0724 6.6444 11.4288 6.69852L15.0625 7.25234C15.9603 7.38959 16.3176 8.54169 15.6678 9.20183L13.0402 11.8752C12.7819 12.1381 12.6644 12.516 12.7255 12.8872L13.3456 16.6615C13.4983 17.5951 12.5598 18.3075 11.7573 17.8658L8.50952 16.0825C8.19113 15.9076 7.8098 15.9076 7.49048 16.0825L4.24267 17.8658C3.44021 18.3075 2.50168 17.5951 2.65533 16.6615L3.27453 12.8872C3.33562 12.516 3.21807 12.1381 2.95984 11.8752L0.33216 9.20183C-0.317586 8.54169 0.0396815 7.38959 0.937479 7.25234L4.57125 6.69852C4.92759 6.6444 5.2358 6.4105 5.395 6.07318L7.01844 2.63718C7.42013 1.78761 8.57987 1.78761 8.98156 2.63718Z" fill="#FFD33C"/>
<path fill-rule="evenodd" clip-rule="evenodd" d="M32.9816 2.63718L34.6059 6.07318C34.7651 6.4105 35.0724 6.6444 35.4288 6.69852L39.0625 7.25234C39.9603 7.38959 40.3176 8.54169 39.6678 9.20183L37.0402 11.8752C36.7819 12.1381 36.6644 12.516 36.7255 12.8872L37.3456 16.6615C37.4983 17.5951 36.5598 18.3075 35.7573 17.8658L32.5095 16.0825C32.1911 15.9076 31.8098 15.9076 31.4905 16.0825L28.2427 17.8658C27.4402 18.3075 26.5017 17.5951 26.6553 16.6615L27.2745 12.8872C27.3356 12.516 27.2181 12.1381 26.9598 11.8752L24.3322 9.20183C23.6824 8.54169 24.0397 7.38959 24.9375 7.25234L28.5712 6.69852C28.9276 6.6444 29.2358 6.4105 29.395 6.07318L31.0184 2.63718C31.4201 1.78761 32.5799 1.78761 32.9816 2.63718Z" fill="#FFD33C"/>
<path fill-rule="evenodd" clip-rule="evenodd" d="M56.9816 2.63718L58.6059 6.07318C58.7651 6.4105 59.0724 6.6444 59.4288 6.69852L63.0625 7.25234C63.9603 7.38959 64.3176 8.54169 63.6678 9.20183L61.0402 11.8752C60.7819 12.1381 60.6644 12.516 60.7255 12.8872L61.3456 16.6615C61.4983 17.5951 60.5598 18.3075 59.7573 17.8658L56.5095 16.0825C56.1911 15.9076 55.8098 15.9076 55.4905 16.0825L52.2427 17.8658C51.4402 18.3075 50.5017 17.5951 50.6553 16.6615L51.2745 12.8872C51.3356 12.516 51.2181 12.1381 50.9598 11.8752L48.3322 9.20183C47.6824 8.54169 48.0397 7.38959 48.9375 7.25234L52.5712 6.69852C52.9276 6.6444 53.2358 6.4105 53.395 6.07318L55.0184 2.63718C55.4201 1.78761 56.5799 1.78761 56.9816 2.63718Z" fill="#FFD33C"/>
<path fill-rule="evenodd" clip-rule="evenodd" d="M80.9816 2.63718L82.6059 6.07318C82.7651 6.4105 83.0724 6.6444 83.4288 6.69852L87.0625 7.25234C87.9603 7.38959 88.3176 8.54169 87.6678 9.20183L85.0402 11.8752C84.7819 12.1381 84.6644 12.516 84.7255 12.8872L85.3456 16.6615C85.4983 17.5951 84.5598 18.3075 83.7573 17.8658L80.5095 16.0825C80.1911 15.9076 79.8098 15.9076 79.4905 16.0825L76.2427 17.8658C75.4402 18.3075 74.5017 17.5951 74.6553 16.6615L75.2745 12.8872C75.3356 12.516 75.2181 12.1381 74.9598 11.8752L72.3322 9.20183C71.6824 8.54169 72.0397 7.38959 72.9375 7.25234L76.5712 6.69852C76.9276 6.6444 77.2358 6.4105 77.395 6.07318L79.0184 2.63718C79.4201 1.78761 80.5799 1.78761 80.9816 2.63718Z" fill="#FFD33C"/>
<path fill-rule="evenodd" clip-rule="evenodd" d="M104.982 2.63718L106.606 6.07318C106.765 6.4105 107.072 6.6444 107.429 6.69852L111.063 7.25234C111.96 7.38959 112.318 8.54169 111.668 9.20183L109.04 11.8752C108.782 12.1381 108.664 12.516 108.725 12.8872L109.346 16.6615C109.498 17.5951 108.56 18.3075 107.757 17.8658L104.51 16.0825C104.191 15.9076 103.81 15.9076 103.49 16.0825L100.243 17.8658C99.4402 18.3075 98.5017 17.5951 98.6553 16.6615L99.2745 12.8872C99.3356 12.516 99.2181 12.1381 98.9598 11.8752L96.3322 9.20183C95.6824 8.54169 96.0397 7.38959 96.9375 7.25234L100.571 6.69852C100.928 6.6444 101.236 6.4105 101.395 6.07318L103.018 2.63718C103.42 1.78761 104.58 1.78761 104.982 2.63718Z" fill="#FFD33C"/>
<path d="M124.34 15.1392C123.717 15.1392 123.157 15.0199 122.66 14.7812C122.166 14.5393 121.772 14.2079 121.477 13.7869C121.182 13.366 121.024 12.8854 121.004 12.3452H122.496C122.532 12.7827 122.726 13.1423 123.077 13.424C123.429 13.7057 123.85 13.8466 124.34 13.8466C124.731 13.8466 125.078 13.7571 125.379 13.5781C125.684 13.3958 125.923 13.1456 126.095 12.8274C126.271 12.5092 126.359 12.1463 126.359 11.7386C126.359 11.3243 126.269 10.9548 126.09 10.63C125.911 10.3052 125.664 10.05 125.349 9.86435C125.038 9.67874 124.68 9.58428 124.276 9.58097C123.967 9.58097 123.657 9.634 123.346 9.74006C123.034 9.84612 122.782 9.98532 122.59 10.1577L121.183 9.94886L121.755 4.81818H127.353V6.13565H123.033L122.71 8.98438H122.769C122.968 8.79214 123.232 8.63139 123.56 8.50213C123.891 8.37287 124.246 8.30824 124.624 8.30824C125.243 8.30824 125.795 8.45573 126.279 8.75071C126.766 9.04569 127.149 9.44839 127.428 9.95881C127.709 10.4659 127.848 11.0492 127.845 11.7088C127.848 12.3684 127.699 12.9567 127.398 13.4737C127.099 13.9908 126.685 14.3984 126.155 14.6967C125.628 14.9917 125.023 15.1392 124.34 15.1392ZM130.291 15.0945C130.019 15.0945 129.786 14.9983 129.59 14.8061C129.395 14.6106 129.297 14.3752 129.297 14.1001C129.297 13.8284 129.395 13.5964 129.59 13.4041C129.786 13.2086 130.019 13.1108 130.291 13.1108C130.563 13.1108 130.797 13.2086 130.992 13.4041C131.188 13.5964 131.286 13.8284 131.286 14.1001C131.286 14.2824 131.239 14.4498 131.146 14.6023C131.057 14.7514 130.938 14.8707 130.788 14.9602C130.639 15.0497 130.473 15.0945 130.291 15.0945ZM136.432 15.169C135.647 15.1657 134.976 14.9586 134.419 14.5476C133.862 14.1366 133.436 13.5384 133.141 12.7528C132.846 11.9673 132.699 11.0211 132.699 9.91406C132.699 8.81037 132.846 7.86742 133.141 7.08523C133.439 6.30303 133.867 5.70644 134.424 5.29545C134.984 4.88447 135.653 4.67898 136.432 4.67898C137.211 4.67898 137.879 4.88613 138.436 5.30043C138.993 5.71141 139.419 6.308 139.714 7.0902C140.012 7.86908 140.161 8.81037 140.161 9.91406C140.161 11.0244 140.014 11.9723 139.719 12.7578C139.424 13.54 138.998 14.1383 138.441 14.5526C137.884 14.9635 137.215 15.169 136.432 15.169ZM136.432 13.8416C137.122 13.8416 137.66 13.5052 138.048 12.8324C138.439 12.1596 138.635 11.1868 138.635 9.91406C138.635 9.06889 138.545 8.35464 138.366 7.77131C138.191 7.18466 137.937 6.74053 137.606 6.43892C137.278 6.134 136.886 5.98153 136.432 5.98153C135.746 5.98153 135.208 6.3196 134.817 6.99574C134.425 7.67187 134.228 8.64465 134.225 9.91406C134.225 10.7625 134.313 11.4801 134.488 12.0668C134.667 12.6501 134.921 13.0926 135.249 13.3942C135.577 13.6925 135.972 13.8416 136.432 13.8416Z" fill="#1D1E25"/>
</svg>
