<svg width="731" height="180" viewBox="0 0 731 180" fill="none" xmlns="http://www.w3.org/2000/svg">
<g clip-path="url(#clip0_134_643)">
<g clip-path="url(#clip1_134_643)">
<g clip-path="url(#clip2_134_643)">
<rect x="0.5" width="160" height="90" rx="16" fill="white"/>
<g clip-path="url(#clip3_134_643)">
<path d="M60.2895 51.2616C60.1374 50.896 59.9948 50.5116 59.8428 50.1835L59.1395 48.6178L59.111 48.5897C57.0201 44.0897 54.7866 39.5147 52.4201 35.0147L52.3251 34.8272C52.0875 34.3866 51.8499 33.8991 51.6028 33.4491C51.2987 32.9147 51.004 32.3428 50.5193 31.7991C50.0469 31.2302 49.4522 30.7718 48.7784 30.457C48.1045 30.1423 47.3682 29.979 46.6227 29.979C45.8771 29.979 45.1408 30.1423 44.4669 30.457C43.7931 30.7718 43.1985 31.2302 42.726 31.7991C42.2793 32.3428 41.9467 32.9147 41.6425 33.4491C41.4049 33.9366 41.1673 34.4147 40.9202 34.8553L40.8252 35.0428C38.4967 39.5428 36.2252 44.1178 34.1344 48.6178L34.0773 48.6741C33.8682 49.1616 33.6211 49.6678 33.3835 50.2116C33.2315 50.5397 33.0794 50.896 32.9273 51.2897C32.5168 52.3208 32.3857 53.4396 32.547 54.5358C32.7082 55.632 33.1563 56.6679 33.847 57.5414C34.5377 58.4148 35.4472 59.0956 36.4859 59.5167C37.5245 59.9378 38.6565 60.0847 39.7703 59.9428C40.838 59.8042 41.8662 59.4534 42.7925 58.9116C44.0281 58.2272 45.2161 57.2335 46.5466 55.7991C47.8772 57.2335 49.0937 58.2272 50.3007 58.921C51.4615 59.593 52.7759 59.9639 54.1214 59.9991C55.6794 60.0055 57.1872 59.4556 58.3663 58.451C59.5454 57.4464 60.3163 56.0549 60.5366 54.5335C60.7911 53.4401 60.705 52.2965 60.2895 51.2522V51.2616ZM46.6417 52.8178C45.007 50.7553 43.9425 48.8616 43.5814 47.2397C43.4317 46.6387 43.3995 46.0151 43.4863 45.4022C43.5529 44.9241 43.7334 44.5022 43.9805 44.146C44.5508 43.3303 45.5487 42.8241 46.6417 42.8241C47.1607 42.8085 47.6756 42.9202 48.1401 43.1493C48.6045 43.3783 49.0041 43.7176 49.3028 44.1366C49.5499 44.5116 49.7305 44.9241 49.7875 45.4022C49.8825 45.946 49.8445 46.5741 49.6925 47.2397C49.3313 48.8335 48.2669 50.746 46.6417 52.8178ZM58.7498 54.2053C58.6418 54.9778 58.3305 55.7088 57.847 56.3257C57.3634 56.9425 56.7244 57.4236 55.9936 57.721C55.2713 58.021 54.473 58.1053 53.6937 58.021C52.9333 57.9272 52.173 57.6835 51.3937 57.2335C50.0997 56.4446 48.9362 55.4644 47.9437 54.3272C49.9396 51.8897 51.1466 49.6678 51.6028 47.6897C51.8214 46.7522 51.8499 45.9085 51.7548 45.1303C51.6362 44.3928 51.3574 43.6893 50.9375 43.0678C50.4581 42.394 49.8182 41.8467 49.0742 41.474C48.3301 41.1013 47.5046 40.9146 46.6702 40.9303C44.9119 40.9303 43.3438 41.7366 42.3934 43.0585C41.9655 43.6783 41.689 44.3875 41.5855 45.1303C41.462 45.9178 41.4905 46.7897 41.7376 47.6897C42.1938 49.6678 43.4293 51.9178 45.3966 54.346C44.421 55.5049 43.2548 56.4937 41.9467 57.271C41.1578 57.721 40.407 57.9553 39.6467 58.0491C38.4643 58.1985 37.2699 57.8815 36.3231 57.167C35.3763 56.4525 34.7537 55.3983 34.5906 54.2335C34.4955 53.4835 34.562 52.7335 34.8662 51.8897C34.9612 51.5897 35.1038 51.2897 35.2558 50.9335C35.4649 50.446 35.712 49.9397 35.9496 49.4335L35.9876 49.3678C38.0405 44.896 40.2835 40.3303 42.612 35.8585L42.707 35.671C42.9446 35.221 43.1822 34.7428 43.4293 34.2928C43.6764 33.8147 43.9425 33.3553 44.2847 32.9803C44.5808 32.6316 44.9509 32.3512 45.3688 32.1587C45.7867 31.9663 46.2423 31.8666 46.7034 31.8666C47.1646 31.8666 47.6202 31.9663 48.0381 32.1587C48.456 32.3512 48.8261 32.6316 49.1222 32.9803C49.4549 33.3553 49.7305 33.8147 49.9776 34.2928C50.2152 34.7428 50.4528 35.2303 50.6999 35.671L50.7949 35.8585C53.1139 40.3303 55.3569 44.896 57.4478 49.3678L57.4763 49.396C57.7234 49.8835 57.9325 50.4272 58.1701 50.896C58.3221 51.2616 58.4742 51.5522 58.5692 51.8616C58.7498 52.7053 58.8449 53.4553 58.7498 54.2053ZM71.9794 52.6116C71.2633 52.6219 70.5539 52.4731 69.904 52.1761C69.2542 51.8791 68.6804 51.4416 68.2253 50.896C67.2028 49.7334 66.6601 48.2345 66.7047 46.696C66.689 45.124 67.2493 43.5993 68.2824 42.4022C68.7602 41.8497 69.3551 41.4072 70.025 41.1059C70.695 40.8046 71.4238 40.6519 72.16 40.6585C72.8528 40.6398 73.539 40.7952 74.1542 41.11C74.7693 41.4249 75.2932 41.8889 75.6765 42.4585L75.7715 40.9866H78.5467V52.3116H75.762L75.667 50.6616C75.2718 51.2697 74.7256 51.7681 74.0802 52.1094C73.4348 52.4507 72.7116 52.6235 71.9794 52.6116ZM72.7017 49.9116C73.253 49.9116 73.7377 49.7616 74.1939 49.4897C74.6121 49.1897 74.9542 48.796 75.2203 48.3178C75.4579 47.8397 75.5815 47.2678 75.5815 46.6303C75.6185 46.0767 75.5093 45.523 75.2644 45.0234C75.0195 44.5238 74.6474 44.0955 74.1844 43.7803C73.7395 43.5069 73.2259 43.362 72.7017 43.362C72.1776 43.362 71.664 43.5069 71.2191 43.7803C70.8009 44.0803 70.4588 44.4741 70.1927 44.9522C69.9413 45.4795 69.8177 46.0572 69.8315 46.6397C69.7945 47.1934 69.9037 47.7471 70.1486 48.2467C70.3935 48.7462 70.7656 49.1745 71.2286 49.4897C71.6753 49.7616 72.16 49.9116 72.7017 49.9116ZM83.2987 37.9303C83.2987 38.2585 83.2417 38.5585 83.0897 38.8022C82.9376 39.0366 82.7285 39.2522 82.4529 39.4022C82.1773 39.5522 81.8826 39.6085 81.5785 39.6085C81.2744 39.6085 80.9703 39.5522 80.6946 39.4022C80.434 39.2591 80.2148 39.0525 80.0579 38.8022C79.9107 38.5352 79.8385 38.2342 79.8488 37.9303C79.8488 37.5928 79.9153 37.2928 80.0579 37.0585C80.2099 36.7772 80.4285 36.6085 80.6946 36.4585C80.9703 36.3085 81.2649 36.2428 81.5785 36.2428C81.881 36.236 82.1802 36.3066 82.4467 36.448C82.7133 36.5893 82.9381 36.7964 83.0992 37.0491C83.2375 37.3224 83.306 37.6249 83.2987 37.9303ZM80.0674 52.2741V40.9678H83.0897V52.2928H80.0579L80.0674 52.2741ZM91.1681 43.9303V43.9678C91.0255 43.9022 90.8354 43.8741 90.6929 43.846C90.5028 43.8085 90.3507 43.8085 90.1702 43.8085C89.3243 43.8085 88.6875 44.0522 88.2694 44.5585C87.8132 45.0741 87.6041 45.796 87.6041 46.7241V52.2835H84.5723V40.9585H87.357L87.452 42.6741C87.7561 42.0741 88.1173 41.6241 88.6305 41.2866C89.141 40.9587 89.742 40.7949 90.3507 40.8178C90.5693 40.8178 90.7784 40.8366 90.959 40.8741C91.054 40.9022 91.1111 40.9022 91.1681 40.9303V43.9303ZM92.3846 52.2741V36.3178H95.4069V42.4116C95.8346 41.8678 96.3193 41.446 96.9275 41.1178C97.8905 40.6521 98.9844 40.52 100.033 40.7428C101.081 40.9657 102.023 41.5304 102.706 42.346C103.731 43.5109 104.274 45.0136 104.227 46.5553C104.242 48.1273 103.682 49.6521 102.649 50.8491C102.171 51.4016 101.576 51.8441 100.906 52.1454C100.236 52.4467 99.5076 52.5994 98.7713 52.5928C98.0785 52.6115 97.3923 52.4562 96.7772 52.1413C96.162 51.8264 95.6382 51.3624 95.2548 50.7928L95.1598 52.2647L92.3846 52.2928V52.2741ZM98.2296 49.9116C98.7713 49.9116 99.256 49.7616 99.7122 49.4897C100.13 49.1897 100.473 48.796 100.739 48.3178C100.986 47.8397 101.1 47.2678 101.1 46.6303C101.1 46.0022 100.986 45.4303 100.739 44.9522C100.489 44.4912 100.138 44.0909 99.7122 43.7803C99.2674 43.5069 98.7537 43.362 98.2296 43.362C97.7055 43.362 97.1918 43.5069 96.747 43.7803C96.3193 44.0803 95.9866 44.4741 95.711 44.9522C95.4597 45.4795 95.336 46.0572 95.3499 46.6397C95.3128 47.1934 95.4221 47.7471 95.667 48.2467C95.9119 48.7462 96.284 49.1745 96.747 49.4897C97.1936 49.7616 97.6784 49.9116 98.2296 49.9116ZM105.367 52.2835V40.9585H108.152L108.247 42.4303C108.597 41.8661 109.093 41.4044 109.685 41.0929C110.276 40.7814 110.941 40.6314 111.611 40.6585C112.377 40.6454 113.13 40.8555 113.776 41.2623C114.422 41.6692 114.932 42.2548 115.242 42.946C115.574 43.6585 115.755 44.5397 115.755 45.5241V52.3116H112.723V45.9178C112.723 45.1303 112.543 44.5116 112.182 44.0522C111.82 43.6022 111.326 43.3585 110.699 43.3585C110.243 43.3585 109.844 43.4522 109.492 43.6585C109.159 43.8741 108.884 44.146 108.675 44.5303C108.463 44.9189 108.358 45.3552 108.37 45.796V52.2835H105.367ZM117.266 52.2835V36.3085H120.298V42.4022C120.709 41.8554 121.243 41.4106 121.858 41.103C122.474 40.7955 123.153 40.6336 123.843 40.6303C124.559 40.62 125.268 40.7689 125.918 41.0659C126.568 41.3629 127.142 41.8004 127.597 42.346C128.615 43.5108 129.154 45.009 129.108 46.546C129.125 48.1181 128.564 49.6431 127.531 50.8397C127.053 51.3923 126.458 51.8348 125.788 52.136C125.118 52.4373 124.389 52.59 123.653 52.5835C122.96 52.6022 122.274 52.4468 121.659 52.1319C121.044 51.817 120.52 51.353 120.136 50.7835L120.051 52.2553L117.266 52.2835ZM123.14 49.9116C123.691 49.9116 124.176 49.7616 124.622 49.4897C125.05 49.1897 125.383 48.796 125.658 48.3178C125.896 47.8397 126.019 47.2678 126.019 46.6303C126.056 46.0767 125.947 45.523 125.702 45.0234C125.457 44.5238 125.085 44.0955 124.622 43.7803C124.177 43.5069 123.664 43.362 123.14 43.362C122.616 43.362 122.102 43.5069 121.657 43.7803C121.239 44.0803 120.897 44.4741 120.631 44.9522C120.365 45.4748 120.241 46.056 120.269 46.6397C120.232 47.1934 120.342 47.7471 120.587 48.2467C120.831 48.7462 121.204 49.1745 121.667 49.4897C122.113 49.7616 122.569 49.9116 123.14 49.9116Z" fill="#FF385C"/>
</g>
</g>
<g clip-path="url(#clip4_134_643)">
<rect x="190.5" width="160" height="90" rx="16" fill="white"/>
<g clip-path="url(#clip5_134_643)">
<path fill-rule="evenodd" clip-rule="evenodd" d="M282.64 53.461C277.007 57.725 268.842 60.0001 261.811 60.0001C251.954 60.0001 243.08 56.256 236.366 50.0289C235.839 49.5393 236.311 48.8719 236.944 49.2533C244.19 53.5823 253.148 56.1867 262.402 56.1867C268.643 56.1867 275.509 54.8607 281.822 52.109C282.775 51.693 283.573 52.7503 282.64 53.461Z" fill="#FF9900"/>
<path fill-rule="evenodd" clip-rule="evenodd" d="M284.982 50.7093C284.265 49.7646 280.223 50.2629 278.408 50.4839C277.855 50.5533 277.771 50.0593 278.269 49.7039C281.488 47.3769 286.772 48.0486 287.388 48.8286C288.004 49.6129 287.227 55.0513 284.202 57.647C283.738 58.0457 283.295 57.8333 283.501 57.3047C284.181 55.5627 285.704 51.6583 284.982 50.7093Z" fill="#FF9900"/>
<path fill-rule="evenodd" clip-rule="evenodd" d="M278.535 33.2762V31.0141C278.535 30.6718 278.788 30.4421 279.092 30.4421H288.954C289.27 30.4421 289.523 30.6761 289.523 31.0141V32.9512C289.519 33.2762 289.253 33.7008 288.781 34.3725L283.67 41.8649C285.569 41.8173 287.574 42.1076 289.295 43.1043C289.684 43.3296 289.789 43.6589 289.819 43.9839V46.3976C289.819 46.727 289.464 47.1126 289.093 46.9133C286.059 45.2796 282.029 45.102 278.674 46.9306C278.332 47.1213 277.974 46.74 277.974 46.4106V44.1183C277.974 43.7499 277.978 43.1216 278.337 42.5626L284.257 33.8438H279.105C278.788 33.8438 278.535 33.6142 278.535 33.2762Z" fill="#1D1E25"/>
<path fill-rule="evenodd" clip-rule="evenodd" d="M242.561 47.3898H239.561C239.274 47.3681 239.046 47.1471 239.025 46.8654V31.053C239.025 30.7366 239.282 30.4853 239.603 30.4853H242.401C242.692 30.4983 242.924 30.728 242.945 31.014V33.081H243C243.73 31.0833 245.101 30.1516 246.95 30.1516C248.827 30.1516 250.001 31.0833 250.845 33.081C251.57 31.0833 253.22 30.1516 254.988 30.1516C256.246 30.1516 257.622 30.6846 258.461 31.8806C259.411 33.211 259.217 35.1437 259.217 36.838L259.212 46.8178C259.212 47.1341 258.955 47.3898 258.634 47.3898H255.638C255.339 47.3681 255.098 47.1211 255.098 46.8178V38.437C255.098 37.7697 255.157 36.1057 255.014 35.473C254.79 34.4113 254.119 34.1123 253.25 34.1123C252.524 34.1123 251.764 34.6107 251.456 35.408C251.148 36.2053 251.178 37.54 251.178 38.437V46.8178C251.178 47.1341 250.92 47.3898 250.6 47.3898H247.604C247.3 47.3681 247.064 47.1211 247.064 46.8178L247.059 38.437C247.059 36.6733 247.342 34.0777 245.211 34.0777C243.055 34.0777 243.139 36.6083 243.139 38.437V46.8178C243.139 47.1341 242.882 47.3898 242.561 47.3898" fill="#1D1E25"/>
<path fill-rule="evenodd" clip-rule="evenodd" d="M298.013 30.1516C302.465 30.1516 304.874 34.0777 304.874 39.0697C304.874 43.8928 302.212 47.7191 298.013 47.7191C293.641 47.7191 291.261 43.7931 291.261 38.9007C291.261 33.978 293.671 30.1516 298.013 30.1516ZM298.038 33.38C295.827 33.38 295.688 36.474 295.688 38.4024C295.688 40.3351 295.658 44.4604 298.013 44.4604C300.338 44.4604 300.448 41.1324 300.448 39.1044C300.448 37.7697 300.393 36.175 300 34.9097C299.663 33.809 298.992 33.38 298.038 33.38Z" fill="#1D1E25"/>
<path fill-rule="evenodd" clip-rule="evenodd" d="M310.647 47.3898H307.66C307.36 47.3681 307.119 47.1211 307.119 46.8178L307.115 31.001C307.141 30.7106 307.39 30.4853 307.693 30.4853H310.474C310.736 30.4983 310.951 30.6803 311.01 30.9273V33.3453H311.065C311.905 31.183 313.082 30.1516 315.154 30.1516C316.5 30.1516 317.812 30.65 318.656 32.015C319.441 33.2803 319.441 35.408 319.441 36.9377V46.8914C319.407 47.1688 319.158 47.3898 318.863 47.3898H315.854C315.58 47.3681 315.352 47.1601 315.323 46.8914V38.3027C315.323 36.5737 315.517 34.043 313.445 34.043C312.715 34.043 312.044 34.5457 311.711 35.3083C311.289 36.2747 311.234 37.2367 311.234 38.3027V46.8178C311.23 47.1341 310.968 47.3898 310.647 47.3898" fill="#1D1E25"/>
<path fill-rule="evenodd" clip-rule="evenodd" d="M270.673 39.8368C270.673 41.0371 270.703 42.0381 270.112 43.1041C269.635 43.9708 268.875 44.5038 268.036 44.5038C266.884 44.5038 266.208 43.6025 266.208 42.2721C266.208 39.6461 268.5 39.1694 270.673 39.1694V39.8368ZM273.699 47.3465C273.5 47.5285 273.213 47.5415 272.99 47.4202C271.994 46.5708 271.812 46.1765 271.268 45.3662C269.622 47.0908 268.453 47.6065 266.322 47.6065C263.795 47.6065 261.833 46.0075 261.833 42.8051C261.833 40.3048 263.149 38.6018 265.031 37.7697C266.66 37.0331 268.934 36.9031 270.673 36.6994V36.3007C270.673 35.5684 270.728 34.7017 270.306 34.069C269.943 33.5014 269.242 33.2674 268.622 33.2674C267.479 33.2674 266.462 33.8697 266.213 35.1177C266.162 35.3951 265.964 35.6681 265.689 35.6811L262.782 35.3604C262.537 35.3041 262.263 35.1004 262.335 34.7147C263.001 31.092 266.192 30 269.044 30C270.504 30 272.412 30.3987 273.564 31.534C275.024 32.9337 274.884 34.8014 274.884 36.8337V41.6351C274.884 43.0781 275.467 43.7108 276.015 44.4908C276.205 44.7682 276.247 45.1018 276.003 45.3098C275.391 45.8342 274.302 46.8092 273.703 47.3552L273.699 47.3465" fill="#1D1E25"/>
<path fill-rule="evenodd" clip-rule="evenodd" d="M231.34 39.837C231.34 41.0374 231.37 42.0384 230.779 43.1044C230.302 43.9711 229.547 44.5041 228.703 44.5041C227.551 44.5041 226.88 43.6027 226.88 42.2724C226.88 39.6463 229.171 39.1697 231.34 39.1697V39.837ZM234.366 47.3468C234.168 47.5288 233.881 47.5418 233.657 47.4204C232.661 46.5711 232.484 46.1767 231.935 45.3664C230.29 47.0911 229.125 47.6068 226.99 47.6068C224.466 47.6068 222.5 46.0077 222.5 42.8054C222.5 40.305 223.821 38.602 225.699 37.77C227.327 37.0333 229.602 36.9033 231.34 36.6996V36.301C231.34 35.5686 231.395 34.702 230.978 34.0693C230.61 33.5016 229.91 33.2676 229.294 33.2676C228.15 33.2676 227.129 33.87 226.88 35.118C226.83 35.3953 226.631 35.6683 226.361 35.6813L223.449 35.3606C223.205 35.3043 222.935 35.1006 223.002 34.715C223.673 31.0923 226.859 30.0002 229.712 30.0002C231.172 30.0002 233.079 30.3989 234.231 31.5343C235.691 32.9339 235.552 34.8016 235.552 36.834V41.6354C235.552 43.0784 236.134 43.7111 236.683 44.4911C236.877 44.7684 236.919 45.1021 236.674 45.3101C236.062 45.8344 234.974 46.8094 234.374 47.3554L234.366 47.3467" fill="#1D1E25"/>
</g>
</g>
<g clip-path="url(#clip6_134_643)">
<rect x="380.5" width="160" height="90" rx="16" fill="white"/>
<g clip-path="url(#clip7_134_643)">
<path d="M483.431 58.2206L491.28 49.5614L483.431 40.9009H491.712L495.6 45.1076L499.343 40.9009H507.336L499.524 49.5256L507.443 58.2206H499.127L495.275 53.9794L491.459 58.2206H483.431Z" fill="#FF6600"/>
<path d="M483.431 37.0185H474.541V40.901H483.431V46.7522H474.541V52.1229H483.431V58.2208H468.007V30.9375H483.431V37.0185Z" fill="#FF6600"/>
<path d="M461.501 30.9375V42.1031H461.43C459.989 40.4775 458.189 39.9126 456.101 39.9126C451.824 39.9126 448.602 42.7677 447.471 46.5425C446.181 42.3832 442.854 39.8346 437.922 39.8346C433.916 39.8346 430.753 41.6001 429.102 44.4769V40.9014H420.822V37.0193H429.858V30.9375H413.441V58.2212H420.822V46.7522H428.179C427.96 47.5947 427.843 48.4967 427.843 49.4486C427.843 55.1399 432.271 59.1332 437.922 59.1332C442.674 59.1332 445.806 56.9427 447.462 52.9489H441.137C440.281 54.1487 439.632 54.505 437.922 54.505C435.938 54.505 434.228 52.8059 434.228 50.7917H447.108C447.666 55.3122 451.253 59.2108 456.174 59.2108C458.297 59.2108 460.241 58.1854 461.43 56.4541H461.501V58.2204H468.008V30.9375H461.501ZM434.434 46.8337C434.844 45.1008 436.213 43.9682 437.922 43.9682C439.803 43.9682 441.102 45.0659 441.444 46.8337C441.588 46.8337 434.434 46.8337 434.434 46.8337ZM457.553 54.0667C455.154 54.0667 453.664 51.8725 453.664 49.5816C453.664 47.1327 454.96 44.7778 457.553 44.7778C460.241 44.7778 461.312 47.1327 461.312 49.5816C461.311 51.9039 460.177 54.0667 457.553 54.0667Z" fill="#652C8F"/>
</g>
</g>
<g clip-path="url(#clip8_134_643)">
<rect x="570.5" width="160" height="90" rx="16" fill="white"/>
<g clip-path="url(#clip9_134_643)">
<path d="M633.619 46.8516L632.935 48.779H632.878C632.764 48.3444 632.554 47.683 632.212 46.8894L628.543 37.7252H624.95V52.3313H627.327V43.3182C627.327 42.7513 627.327 42.1089 627.307 41.3153C627.288 40.9185 627.25 40.6162 627.231 40.3894H627.288C627.403 40.9563 627.536 41.372 627.631 41.6365L632.041 52.2935H633.714L638.086 41.542C638.182 41.2964 638.277 40.8051 638.372 40.3894H638.429C638.372 41.4665 638.334 42.4301 638.315 43.0159V52.2746H640.843V37.6874H637.383L633.619 46.8516ZM643.238 41.8066H645.71V52.2746H643.238V41.8066ZM644.493 37.3851C644.075 37.3851 643.733 37.5362 643.447 37.8008C643.162 38.0653 643.01 38.4054 643.01 38.8211C643.01 39.2179 643.162 39.558 643.447 39.8226C643.733 40.0871 644.075 40.2194 644.493 40.2194C644.911 40.2194 645.272 40.0682 645.539 39.8226C645.824 39.558 645.976 39.2179 645.976 38.8211C645.976 38.4243 645.824 38.0842 645.539 37.8008C645.291 37.5362 644.93 37.3851 644.493 37.3851ZM654.474 41.7121C654.017 41.6176 653.542 41.5609 653.086 41.5609C651.964 41.5609 650.938 41.8066 650.082 42.2979C649.227 42.7891 648.542 43.4694 648.105 44.3197C647.649 45.1888 647.421 46.1903 647.421 47.3429C647.421 48.3444 647.649 49.2324 648.086 50.0449C648.523 50.8385 649.132 51.481 649.949 51.9156C650.728 52.3502 651.641 52.5769 652.668 52.5769C653.846 52.5769 654.854 52.3313 655.652 51.8778L655.671 51.8589V49.5915L655.576 49.667C655.215 49.9316 654.797 50.1583 654.378 50.2906C653.941 50.4417 653.542 50.5173 653.2 50.5173C652.211 50.5173 651.432 50.2339 650.881 49.6104C650.31 49.0057 650.025 48.1743 650.025 47.1351C650.025 46.058 650.31 45.2077 650.9 44.5842C651.489 43.9606 652.268 43.6394 653.219 43.6394C654.017 43.6394 654.835 43.904 655.576 44.433L655.671 44.5086V42.1089L655.652 42.09C655.329 41.9577 654.968 41.8066 654.474 41.7121ZM662.629 41.6365C662.021 41.6365 661.45 41.8255 660.956 42.2223C660.538 42.5624 660.253 43.0537 660.006 43.6394H659.987V41.8066H657.515V52.2746H659.987V46.9272C659.987 46.0202 660.177 45.2644 660.595 44.7165C661.013 44.1496 661.545 43.8662 662.192 43.8662C662.42 43.8662 662.648 43.9229 662.933 43.9606C663.199 44.0362 663.389 44.1118 663.523 44.2063L663.618 44.2819V41.8255L663.561 41.8066C663.389 41.6932 663.047 41.6365 662.629 41.6365ZM669.359 41.5798C667.629 41.5798 666.241 42.09 665.272 43.0915C664.283 44.0929 663.808 45.4723 663.808 47.2106C663.808 48.8356 664.302 50.1583 665.252 51.122C666.203 52.0667 667.496 52.558 669.112 52.558C670.804 52.558 672.153 52.0479 673.123 51.0275C674.111 50.0072 674.587 48.6467 674.587 46.965C674.587 45.3022 674.13 43.9795 673.199 43.0159C672.305 42.0522 670.994 41.5798 669.359 41.5798ZM671.336 49.6292C670.88 50.215 670.157 50.4984 669.264 50.4984C668.37 50.4984 667.648 50.215 667.135 49.5915C666.621 49.0057 666.374 48.1554 666.374 47.0784C666.374 45.9635 666.64 45.1133 667.135 44.5086C667.648 43.904 668.351 43.6016 669.245 43.6016C670.119 43.6016 670.804 43.8851 671.298 44.4708C671.792 45.0566 672.058 45.9069 672.058 47.0217C672.02 48.1554 671.811 49.0435 671.336 49.6292ZM680.1 46.1525C679.32 45.8313 678.826 45.5856 678.598 45.3778C678.408 45.1888 678.313 44.9243 678.313 44.5842C678.313 44.3008 678.427 44.0173 678.712 43.8284C678.997 43.6394 679.32 43.5449 679.796 43.5449C680.214 43.5449 680.651 43.6205 681.069 43.7339C681.487 43.8473 681.868 44.0173 682.172 44.2441L682.267 44.3197V42.0144L682.21 41.9955C681.925 41.8822 681.545 41.7688 681.088 41.6743C680.632 41.5987 680.214 41.5609 679.872 41.5609C678.693 41.5609 677.723 41.8444 676.963 42.4679C676.203 43.0537 675.841 43.8473 675.841 44.7731C675.841 45.2644 675.917 45.699 676.088 46.058C676.26 46.417 676.507 46.7572 676.849 47.0406C677.191 47.3051 677.685 47.6074 678.37 47.8909C678.94 48.1365 679.377 48.3255 679.643 48.4766C679.91 48.6278 680.081 48.7979 680.214 48.9301C680.309 49.0813 680.366 49.2702 680.366 49.5159C680.366 50.215 679.834 50.5551 678.75 50.5551C678.332 50.5551 677.894 50.4795 677.381 50.3095C676.868 50.1394 676.393 49.8938 675.993 49.6104L675.898 49.5348V51.9345L675.955 51.9534C676.317 52.1234 676.754 52.2368 677.286 52.3691C677.818 52.4635 678.294 52.5391 678.712 52.5391C679.986 52.5391 681.031 52.2557 681.773 51.6322C682.533 51.0275 682.932 50.2528 682.932 49.2513C682.932 48.5522 682.742 47.9287 682.324 47.4563C681.773 47.0028 681.088 46.5304 680.1 46.1525ZM689.453 41.5798C687.723 41.5798 686.335 42.09 685.366 43.0915C684.396 44.0929 683.902 45.4723 683.902 47.2106C683.902 48.8356 684.396 50.1583 685.347 51.122C686.297 52.0667 687.59 52.558 689.206 52.558C690.898 52.558 692.247 52.0479 693.217 51.0275C694.206 50.0072 694.681 48.6467 694.681 46.965C694.681 45.3022 694.225 43.9795 693.293 43.0159C692.4 42.0522 691.088 41.5798 689.453 41.5798ZM691.411 49.6292C690.955 50.215 690.232 50.4984 689.339 50.4984C688.426 50.4984 687.723 50.215 687.21 49.5915C686.696 49.0057 686.449 48.1554 686.449 47.0784C686.449 45.9635 686.715 45.1133 687.21 44.5086C687.723 43.904 688.426 43.6016 689.32 43.6016C690.175 43.6016 690.879 43.8851 691.373 44.4708C691.867 45.0566 692.133 45.9069 692.133 47.0217C692.133 48.1554 691.886 49.0435 691.411 49.6292ZM707.893 43.8284V41.8066H705.403V38.7077L705.327 38.7266L702.969 39.4258L702.912 39.4447V41.8066H699.186V40.4839C699.186 39.8792 699.338 39.4069 699.604 39.1045C699.871 38.8022 700.27 38.651 700.764 38.651C701.106 38.651 701.468 38.7266 701.867 38.8967L701.962 38.9534V36.8182L701.905 36.7993C701.563 36.6859 701.106 36.6104 700.517 36.6104C699.776 36.6104 699.129 36.7804 698.54 37.0638C697.951 37.3851 697.513 37.8197 697.19 38.4054C696.867 38.9723 696.696 39.6147 696.696 40.3516V41.8066H694.966V43.8095H696.696V52.2746H699.186V43.8284H702.912V49.2136C702.912 51.4243 703.958 52.5391 706.049 52.5391C706.391 52.5391 706.752 52.4824 707.095 52.4258C707.456 52.3502 707.722 52.2557 707.874 52.1801L707.893 52.1612V50.1394L707.798 50.215C707.646 50.3095 707.513 50.3851 707.285 50.4417C707.095 50.4984 706.924 50.5173 706.79 50.5173C706.296 50.5173 705.954 50.404 705.707 50.1205C705.479 49.856 705.365 49.4214 705.365 48.779V43.8284H707.893Z" fill="#737373"/>
<path d="M593.088 32.8125H604.742V44.3953H593.088V32.8125Z" fill="#F25022"/>
<path d="M605.958 32.8125H617.612V44.3953H605.958V32.8125Z" fill="#7FBA00"/>
<path d="M593.088 45.6047H604.742V57.1876H593.088V45.6047Z" fill="#00A4EF"/>
<path d="M605.958 45.6047H617.612V57.1876H605.958V45.6047Z" fill="#FFB900"/>
</g>
</g>
</g>
<g clip-path="url(#clip10_134_643)">
<g clip-path="url(#clip11_134_643)">
<rect x="0.5" y="90" width="160" height="90" rx="16" fill="white"/>
<g clip-path="url(#clip12_134_643)">
<path d="M74.3141 135.385C74.3141 139.549 71.0302 142.617 67 142.617C62.9699 142.617 59.686 139.549 59.686 135.385C59.686 131.191 62.9699 128.152 67 128.152C71.0302 128.152 74.3141 131.191 74.3141 135.385ZM71.1123 135.385C71.1123 132.783 69.209 131.002 67 131.002C64.7911 131.002 62.8878 132.783 62.8878 135.385C62.8878 137.961 64.7911 139.767 67 139.767C69.209 139.767 71.1123 137.958 71.1123 135.385Z" fill="#EA4335"/>
<path d="M90.0924 135.385C90.0924 139.549 86.8085 142.617 82.7784 142.617C78.7483 142.617 75.4644 139.549 75.4644 135.385C75.4644 131.194 78.7483 128.152 82.7784 128.152C86.8085 128.152 90.0924 131.191 90.0924 135.385ZM86.8906 135.385C86.8906 132.783 84.9874 131.002 82.7784 131.002C80.5694 131.002 78.6661 132.783 78.6661 135.385C78.6661 137.961 80.5694 139.767 82.7784 139.767C84.9874 139.767 86.8906 137.958 86.8906 135.385Z" fill="#FBBC05"/>
<path d="M105.214 128.589V141.574C105.214 146.915 102.038 149.097 98.2841 149.097C94.7503 149.097 92.6235 146.752 91.8214 144.835L94.609 143.684C95.1054 144.861 96.3216 146.25 98.2808 146.25C100.684 146.25 102.173 144.779 102.173 142.011V140.971H102.061C101.344 141.848 99.9638 142.614 98.2216 142.614C94.5761 142.614 91.2363 139.464 91.2363 135.411C91.2363 131.328 94.5761 128.152 98.2216 128.152C99.9606 128.152 101.341 128.918 102.061 129.769H102.173V128.592H105.214V128.589ZM102.4 135.411C102.4 132.864 100.687 131.002 98.5076 131.002C96.2986 131.002 94.4479 132.864 94.4479 135.411C94.4479 137.931 96.2986 139.767 98.5076 139.767C100.687 139.767 102.4 137.931 102.4 135.411Z" fill="#4285F4"/>
<path d="M110.226 120.978V142.174H107.104V120.978H110.226Z" fill="#34A853"/>
<path d="M122.396 137.765L124.881 139.409C124.079 140.586 122.146 142.614 118.806 142.614C114.665 142.614 111.571 139.438 111.571 135.382C111.571 131.08 114.691 128.149 118.448 128.149C122.232 128.149 124.082 131.136 124.687 132.75L125.019 133.572L115.273 137.576C116.019 139.027 117.179 139.767 118.806 139.767C120.437 139.767 121.568 138.972 122.396 137.765ZM114.747 135.163L121.262 132.479C120.904 131.576 119.825 130.947 118.557 130.947C116.929 130.947 114.665 132.372 114.747 135.163Z" fill="#EA4335"/>
<path d="M47.8655 133.503V130.435H58.2892C58.3911 130.97 58.4437 131.602 58.4437 132.287C58.4437 134.589 57.8093 137.436 55.7646 139.464C53.7759 141.519 51.2349 142.614 47.8688 142.614C41.6297 142.614 36.3833 137.573 36.3833 131.384C36.3833 125.195 41.6297 120.153 47.8688 120.153C51.3203 120.153 53.7792 121.497 55.6266 123.248L53.4439 125.413C52.1191 124.18 50.3243 123.222 47.8655 123.222C43.3094 123.222 39.7461 126.864 39.7461 131.384C39.7461 135.903 43.3094 139.546 47.8655 139.546C50.8207 139.546 52.5037 138.369 53.5819 137.299C54.4563 136.432 55.0316 135.192 55.2584 133.5L47.8655 133.503Z" fill="#4285F4"/>
</g>
</g>
<g clip-path="url(#clip13_134_643)">
<rect x="190.5" y="90" width="160" height="90" rx="16" fill="white"/>
<g clip-path="url(#clip14_134_643)">
<path fill-rule="evenodd" clip-rule="evenodd" d="M305.678 133.913L299.807 144.07L294.799 144.09L305.678 124.972L316.516 144.09H311.428L305.678 133.912V133.913ZM289.871 139.669H295.48L292.876 144.09H285.564L285.584 138.707V125.09H289.891L289.872 139.669H289.871ZM274.486 125.091C279.835 125.111 284.162 129.354 284.142 134.6C284.122 139.826 279.795 144.07 274.446 144.07C269.117 144.051 264.79 139.807 264.79 134.561C264.809 129.334 269.137 125.091 274.486 125.091ZM274.466 139.65C277.331 139.65 279.634 137.39 279.634 134.6C279.654 131.811 277.331 129.53 274.486 129.53C271.641 129.511 269.317 131.791 269.317 134.581C269.297 137.37 271.621 139.65 274.465 139.65H274.466ZM256.817 133.091C256.757 132.304 256.556 131.263 256.255 130.262C255.637 128.194 254.562 126.293 253.11 124.7C252.349 123.876 251.488 123.109 250.205 122.205C249.226 121.72 248.264 121.203 247.32 120.653C246.7 120.3 245.958 119.866 244.977 119.553C243.814 119.277 242.625 119.126 241.43 119.101C240.27 119.062 239.107 119.161 237.985 119.376C236.803 119.573 235.821 119.886 234.519 120.201C231.573 121.478 229.29 123.404 227.326 125.958C220.475 135.566 226.666 149.025 238.105 150.616C239.988 150.872 241.872 150.773 243.654 150.361L244.916 150.027C244.956 150.007 245.017 149.987 245.056 149.987L246.499 149.437C246.579 149.398 246.639 149.378 246.719 149.339L247.32 149.064C248.474 148.492 249.556 147.787 250.546 146.962C249.645 147.784 248.665 148.515 247.621 149.143L247.68 149.182C247.882 149.123 248.061 149.064 248.262 149.025C248.262 149.025 248.262 149.339 248.222 149.28C247.902 149.516 248.402 149.3 249.043 148.965C249.685 148.632 250.306 148.218 250.866 147.747C251.688 147.06 252.409 146.313 253.431 145.095C254.472 143.268 255.775 141.676 256.376 139.534C256.577 138.964 256.756 138.297 256.877 137.609C256.996 136.922 257.078 136.214 257.078 135.487C257.058 134.76 256.977 134.013 256.817 133.091ZM241.992 149.241C245.498 148.69 248.442 146.746 250.846 144.093C251.508 143.13 252.028 142.246 252.669 141.283C253.47 139.318 253.411 137.57 253.671 136.333C253.992 134.092 253.23 132.285 252.59 130.359C251.608 128.119 250.306 126.45 248.022 125.153C242.251 121.577 234.399 122.578 230.653 127.923C230.633 127.923 230.532 128.06 230.331 128.335C230.592 127.235 231.254 126.587 231.914 125.957C233.878 124.347 236.162 123.069 238.766 122.441C241.712 122.127 244.636 122.441 247.26 123.718C251.187 125.957 253.792 129.476 254.452 133.639V137.491C253.631 143.799 248.222 148.593 241.992 149.241ZM256.396 134.897C256.255 125.664 247.1 119.435 238.185 120.693C235.581 121.341 232.735 122.638 230.712 124.445C229.73 125.093 229.27 126.292 228.288 127.254C224.361 133.012 225.043 140.38 229.931 144.86C230.558 145.483 231.227 146.061 231.934 146.59C227.848 144.132 226.004 140.418 225.363 135.901C225.363 134.289 225.684 132.697 226.024 131.086C228.309 124.032 235.5 118.904 243.334 120.201C244.637 120.516 245.939 120.85 247.262 121.164C248.904 121.812 250.527 122.775 251.829 124.053C253.131 125.329 254.113 126.941 255.095 128.531C255.755 129.809 256.077 131.42 256.397 132.697C256.457 133.424 256.457 134.171 256.397 134.898L256.396 134.897Z" fill="#1D1E25"/>
<path fill-rule="evenodd" clip-rule="evenodd" d="M248.263 135.036C248.263 139.005 244.937 142.228 240.83 142.228C236.724 142.228 233.398 139.005 233.398 135.036C233.398 131.067 236.723 127.845 240.83 127.845C244.937 127.845 248.263 131.067 248.263 135.037V135.036Z" fill="white"/>
<path fill-rule="evenodd" clip-rule="evenodd" d="M248.303 133.818C248.203 133.268 248.042 132.835 247.883 132.227C247.241 130.89 246.3 129.849 245.057 128.965C240.41 125.881 234.019 128.847 233.338 134.113C233.078 136.196 233.819 138.2 235.141 139.733C234.741 139.32 234.3 138.889 234 138.397L233.96 138.437C234 138.554 234.16 138.633 234.2 138.75C234.2 138.75 234.039 138.75 234.08 138.73C233.96 138.594 234.06 138.81 234.24 139.104C234.4 139.399 234.601 139.675 234.841 139.93C235.182 140.303 235.542 140.637 236.143 141.089C237.026 141.54 237.806 142.13 238.828 142.405C239.108 142.485 239.429 142.562 239.75 142.621C240.09 142.681 240.411 142.701 240.772 142.701C241.112 142.701 241.473 142.661 241.913 142.581C242.367 142.528 242.816 142.436 243.255 142.307C244.235 142.011 245.139 141.501 245.9 140.813C246.281 140.461 246.822 140.008 247.242 139.419C247.583 138.751 247.623 138.417 247.783 138.122C247.943 137.827 248.143 137.493 248.284 137.041C248.399 136.504 248.466 135.959 248.485 135.41C248.465 134.861 248.425 134.33 248.304 133.819L248.303 133.818ZM243.535 130.164C244.216 130.556 244.316 130.615 243.955 130.36C244.477 130.478 244.797 130.773 245.118 131.067C245.899 131.952 246.54 132.993 246.86 134.191C247.041 135.547 246.9 136.903 246.32 138.102C245.278 139.929 243.615 141.147 241.631 141.481C241.411 141.481 241.171 141.481 240.95 141.5C241.511 141.402 241.872 141.048 242.894 140.675C243.995 140.282 245.238 138.455 245.84 137.394C247.602 134.505 245.518 131.833 243.535 130.164ZM239.769 141.519C236.724 141.206 234.38 138.71 234.059 135.822C234.339 137.433 235.301 138.671 236.603 139.771C237.064 140.066 237.745 140.478 238.206 140.773C238.987 141.068 239.448 141.383 240.209 141.52H239.769V141.519ZM247.962 136.274C247.823 136.884 247.682 137.472 247.541 138.082C247.241 138.829 246.801 139.595 246.2 140.204C245.599 140.813 244.837 141.284 244.076 141.737C243.475 142.05 242.713 142.208 242.093 142.364C241.732 142.404 241.311 142.247 240.95 142.228C245.398 142.109 248.443 137.964 247.782 133.857C247.461 132.659 246.82 131.617 246.039 130.576C245.719 130.124 245.097 129.849 244.637 129.397C241.852 127.649 238.166 128.002 236.063 130.301C235.768 130.604 235.493 130.925 235.24 131.264C236.363 129.613 238.166 128.455 240.329 128.12C241.091 128.1 241.872 128.238 242.633 128.376C245.999 129.397 248.503 132.659 247.962 136.275V136.274Z" fill="#D7DF23"/>
</g>
</g>
<g clip-path="url(#clip15_134_643)">
<rect x="380.5" y="90" width="160" height="90" rx="16" fill="white"/>
<g clip-path="url(#clip16_134_643)">
<path d="M444.222 131.212V132.699H444.268C444.807 131.903 445.703 130.965 447.688 130.965C449.232 130.965 450.417 131.745 450.925 132.923H450.971C451.404 132.328 451.902 131.877 452.459 131.557C453.118 131.179 453.851 130.962 454.775 130.962C456.866 130.962 458.717 132.311 458.717 135.714V142.168H455.53V136.165C455.53 134.441 454.902 133.443 453.598 133.443C452.642 133.443 451.947 134.042 451.683 134.78C451.591 135.033 451.549 135.379 451.549 135.668V142.172H448.362V135.922C448.362 134.457 447.759 133.44 446.472 133.44C445.442 133.44 444.797 134.197 444.532 134.845C444.419 135.122 444.384 135.441 444.384 135.741V142.168H441.193V131.212H444.222ZM475.17 131.212V133.279H475.258C475.843 131.699 477.232 130.965 478.452 130.965C478.759 130.965 478.928 130.988 479.175 131.034V133.904C478.882 133.865 478.611 133.825 478.23 133.825C476.848 133.825 475.885 134.575 475.642 135.75C475.589 135.994 475.572 136.257 475.572 136.56V142.172H472.299V131.212H475.17ZM483.618 127.582V131.031H486.382V133.822H483.618V137.939C483.618 139.272 483.981 139.917 485.06 139.917C485.568 139.917 485.941 139.858 486.266 139.782L486.308 142.096C485.874 142.247 484.951 142.412 484.013 142.412C482.909 142.412 481.989 142.053 481.428 141.497C480.787 140.862 480.49 139.822 480.49 138.341V127.582H483.618ZM438.972 142.168H435.798V127.582H438.972V142.168ZM430.509 138.255C430.509 138.456 430.492 138.666 430.432 138.847C430.185 139.608 429.342 140.25 428.292 140.25C427.414 140.25 426.715 139.785 426.715 138.801C426.715 137.297 428.493 136.879 430.513 136.889V138.255H430.509ZM433.679 135.632C433.679 133.147 432.544 130.965 428.704 130.965C426.733 130.965 425.168 131.482 424.314 131.942L424.938 133.937C425.718 133.476 426.962 133.098 428.14 133.098C430.09 133.094 430.407 134.128 430.407 134.789V134.947C426.158 134.941 423.475 136.313 423.475 139.111C423.475 140.819 424.84 142.418 427.216 142.418C428.679 142.418 429.899 141.875 430.633 141.003H430.703C430.703 141.003 431.19 142.896 433.863 142.172C433.722 141.382 433.676 140.542 433.676 139.532V135.632H433.679ZM407.534 127.582C407.862 129.125 408.793 133.608 408.793 133.608C409.184 135.451 409.544 137.383 409.815 138.91H409.865C410.129 137.287 410.545 135.75 410.99 133.848L412.559 127.582H416.032L417.499 134.009C417.883 135.797 418.19 137.176 418.433 138.838H418.479C418.743 137.159 419.089 135.724 419.466 133.888L420.876 127.582H424.209L420.08 142.168C417.449 142.705 416.441 141.717 416.081 140.151C415.721 138.581 415.016 135.596 415.016 135.596C414.653 133.96 414.371 132.808 414.174 131.13H414.124C413.842 132.792 413.546 133.957 413.109 135.592L411.377 142.172C408.691 142.672 407.76 141.931 407.245 139.92C406.801 138.199 404.029 127.585 404.029 127.585H407.534V127.582ZM467.01 138.255C467.01 138.456 466.993 138.666 466.933 138.847C466.686 139.608 465.843 140.25 464.793 140.25C463.915 140.25 463.217 139.785 463.217 138.801C463.217 137.297 464.994 136.879 467.014 136.889V138.255H467.01ZM470.18 135.632C470.18 133.147 469.045 130.965 465.205 130.965C463.234 130.965 461.669 131.482 460.815 131.942L461.439 133.937C462.219 133.476 463.463 133.098 464.641 133.098C466.587 133.094 466.908 134.128 466.908 134.789V134.947C462.663 134.941 459.98 136.313 459.98 139.111C459.98 140.819 461.348 142.418 463.721 142.418C465.18 142.418 466.404 141.875 467.134 141.003H467.208C467.208 141.003 467.695 142.896 470.367 142.172C470.226 141.382 470.18 140.542 470.18 139.532V135.632Z" fill="#041E42"/>
<path d="M499.246 137.145C499.559 137.677 499.538 138.272 499.204 138.543L493.433 142.499C492.832 142.839 491.932 142.427 491.422 141.564C490.909 140.698 491 139.732 491.601 139.392L497.991 136.485C498.392 136.333 498.933 136.612 499.246 137.145ZM506.841 137.145C507.157 136.612 507.695 136.337 508.096 136.481L514.489 139.389C515.09 139.729 515.178 140.695 514.668 141.561C514.155 142.423 513.252 142.832 512.654 142.496L506.883 138.54C506.553 138.272 506.528 137.674 506.841 137.145ZM503.042 139.289C503.671 139.289 504.187 139.605 504.258 140.021L504.88 146.888C504.88 147.568 504.068 148.125 503.045 148.125C502.026 148.125 501.211 147.568 501.211 146.888L501.829 140.021C501.899 139.605 502.416 139.289 503.042 139.289ZM506.883 131.46L512.654 127.501C513.252 127.161 514.155 127.57 514.668 128.436C515.178 129.302 515.09 130.268 514.489 130.608L508.096 133.519C507.695 133.663 507.154 133.388 506.841 132.855C506.528 132.323 506.553 131.728 506.883 131.46ZM497.991 133.519L491.601 130.608C491.004 130.268 490.913 129.302 491.422 128.436C491.932 127.57 492.835 127.161 493.433 127.501L499.204 131.46C499.538 131.725 499.559 132.323 499.246 132.855C498.933 133.388 498.392 133.663 497.991 133.519ZM501.829 129.979L501.211 123.112C501.211 122.432 502.022 121.875 503.045 121.875C504.068 121.875 504.88 122.432 504.88 123.112L504.258 129.979C504.187 130.391 503.671 130.711 503.042 130.711C502.416 130.711 501.899 130.391 501.829 129.979ZM516.229 142.472V142.3H516.387C516.44 142.3 516.475 142.334 516.475 142.386C516.475 142.434 516.44 142.472 516.387 142.472H516.229ZM516.099 142.784C516.099 142.801 516.113 142.819 516.134 142.819H516.201C516.218 142.819 516.236 142.801 516.236 142.784V142.588H516.345L516.433 142.795C516.44 142.808 516.45 142.819 516.464 142.819H516.545C516.57 142.819 516.587 142.795 516.577 142.771C516.545 142.709 516.513 142.643 516.482 142.578C516.534 142.561 516.615 142.509 516.615 142.386C516.615 142.255 516.506 142.179 516.397 142.179H516.134C516.116 142.179 516.099 142.197 516.099 142.214V142.784ZM515.814 142.499C515.814 142.221 516.046 141.994 516.331 141.994C516.615 141.994 516.847 142.217 516.847 142.499C516.847 142.777 516.619 143.004 516.331 143.004C516.042 143.004 515.814 142.777 515.814 142.499ZM515.691 142.499C515.691 142.843 515.976 143.125 516.331 143.125C516.682 143.125 516.97 142.843 516.97 142.499C516.97 142.155 516.682 141.874 516.331 141.874C515.976 141.874 515.691 142.155 515.691 142.499Z" fill="#FFC124"/>
</g>
</g>
<g clip-path="url(#clip17_134_643)">
<rect x="570.5" y="90" width="160" height="90" rx="16" fill="white"/>
<g clip-path="url(#clip18_134_643)">
<path d="M675.972 148.725C683.481 148.725 689.591 142.541 689.591 134.94C689.591 127.335 683.481 121.155 675.972 121.155C668.461 121.155 662.353 127.335 662.353 134.94C662.353 142.541 668.461 148.725 675.972 148.725ZM675.972 130.025C678.648 130.025 680.827 132.23 680.827 134.939C680.827 137.648 678.647 139.85 675.97 139.85C673.293 139.85 671.117 137.648 671.117 134.937C671.117 132.225 673.294 130.022 675.97 130.022L675.972 130.025ZM624.59 148.725C632.099 148.725 638.209 142.541 638.209 134.94C638.209 127.335 632.099 121.155 624.59 121.155C617.082 121.155 610.971 127.335 610.971 134.94C610.971 142.541 617.082 148.725 624.59 148.725ZM624.59 130.025C627.267 130.025 629.445 132.23 629.445 134.939C629.445 137.648 627.267 139.85 624.59 139.85C621.914 139.85 619.737 137.648 619.737 134.937C619.737 132.225 621.915 130.022 624.59 130.022V130.025ZM650.273 129.714L646.092 121.335H636.302L645.446 139.665V148.295H655.102V139.665L664.246 121.335H654.452L650.275 129.714H650.273Z" fill="#EE2E24"/>
</g>
</g>
</g>
</g>
<defs>
<clipPath id="clip0_134_643">
<rect width="730" height="180" fill="white" transform="translate(0.5)"/>
</clipPath>
<clipPath id="clip1_134_643">
<rect width="730" height="90" fill="white" transform="translate(0.5)"/>
</clipPath>
<clipPath id="clip2_134_643">
<rect x="0.5" width="160" height="90" fill="white"/>
</clipPath>
<clipPath id="clip3_134_643">
<rect width="96.9412" height="30" fill="white" transform="translate(32.5 30)"/>
</clipPath>
<clipPath id="clip4_134_643">
<rect width="160" height="90" fill="white" transform="translate(190.5)"/>
</clipPath>
<clipPath id="clip5_134_643">
<rect width="96.9412" height="30" fill="white" transform="translate(222.5 30)"/>
</clipPath>
<clipPath id="clip6_134_643">
<rect width="160" height="90" fill="white" transform="translate(380.5)"/>
</clipPath>
<clipPath id="clip7_134_643">
<rect width="94.1176" height="28.125" fill="white" transform="translate(413.441 30.9375)"/>
</clipPath>
<clipPath id="clip8_134_643">
<rect width="160" height="90" fill="white" transform="translate(570.5)"/>
</clipPath>
<clipPath id="clip9_134_643">
<rect width="114.824" height="24.375" fill="white" transform="translate(593.088 32.8125)"/>
</clipPath>
<clipPath id="clip10_134_643">
<rect width="730" height="90" fill="white" transform="translate(0.5 90)"/>
</clipPath>
<clipPath id="clip11_134_643">
<rect width="160" height="90" fill="white" transform="translate(0.5 90)"/>
</clipPath>
<clipPath id="clip12_134_643">
<rect width="89.4118" height="30" fill="white" transform="translate(36.2646 120)"/>
</clipPath>
<clipPath id="clip13_134_643">
<rect width="160" height="90" fill="white" transform="translate(190.5 90)"/>
</clipPath>
<clipPath id="clip14_134_643">
<rect width="92.2353" height="31.875" fill="white" transform="translate(224.382 119.062)"/>
</clipPath>
<clipPath id="clip15_134_643">
<rect width="160" height="90" fill="white" transform="translate(380.5 90)"/>
</clipPath>
<clipPath id="clip16_134_643">
<rect width="112.941" height="26.25" fill="white" transform="translate(404.029 121.875)"/>
</clipPath>
<clipPath id="clip17_134_643">
<rect width="160" height="90" fill="white" transform="translate(570.5 90)"/>
</clipPath>
<clipPath id="clip18_134_643">
<rect width="79.0588" height="30" fill="white" transform="translate(610.971 120)"/>
</clipPath>
</defs>
</svg>
